<mxfile host="65bd71144e">
    <diagram id="ZmP9rQ6tRfBy3tIzzFNz" name="ページ1">
        <mxGraphModel dx="1800" dy="1137" grid="1" gridSize="10" guides="1" tooltips="1" connect="1" arrows="1" fold="1" page="1" pageScale="1" pageWidth="1654" pageHeight="1169" background="#ffffff" math="0" shadow="0">
            <root>
                <mxCell id="0"/>
                <mxCell id="1" parent="0"/>
                <mxCell id="113" value="" style="rounded=0;whiteSpace=wrap;html=1;" vertex="1" parent="1">
                    <mxGeometry x="67.5" y="410" width="582.5" height="220" as="geometry"/>
                </mxCell>
                <mxCell id="109" value="" style="rounded=0;whiteSpace=wrap;html=1;" vertex="1" parent="1">
                    <mxGeometry x="70" y="684" width="1170" height="790" as="geometry"/>
                </mxCell>
                <mxCell id="59" value="" style="rounded=0;whiteSpace=wrap;html=1;" parent="1" vertex="1">
                    <mxGeometry x="530" y="749" width="660" height="220" as="geometry"/>
                </mxCell>
                <mxCell id="107" value="" style="rounded=0;whiteSpace=wrap;html=1;" vertex="1" parent="1">
                    <mxGeometry x="680" y="764" width="210" height="50" as="geometry"/>
                </mxCell>
                <mxCell id="57" value="" style="rounded=0;whiteSpace=wrap;html=1;" parent="1" vertex="1">
                    <mxGeometry x="130" y="1023" width="1060" height="136" as="geometry"/>
                </mxCell>
                <mxCell id="58" value="" style="rounded=0;whiteSpace=wrap;html=1;" parent="1" vertex="1">
                    <mxGeometry x="130" y="749" width="380" height="220" as="geometry"/>
                </mxCell>
                <mxCell id="79" value="apiHandlers" style="rounded=0;whiteSpace=wrap;html=1;" vertex="1" parent="58">
                    <mxGeometry x="185" y="17" width="90" height="30" as="geometry"/>
                </mxCell>
                <mxCell id="56" value="" style="rounded=0;whiteSpace=wrap;html=1;" parent="1" vertex="1">
                    <mxGeometry x="130" y="1197" width="1060" height="246" as="geometry"/>
                </mxCell>
                <mxCell id="54" value="" style="rounded=0;whiteSpace=wrap;html=1;" parent="1" vertex="1">
                    <mxGeometry x="475" y="1359" width="295" height="68" as="geometry"/>
                </mxCell>
                <mxCell id="46" value="" style="rounded=0;whiteSpace=wrap;html=1;" parent="1" vertex="1">
                    <mxGeometry x="170" y="1237" width="250" height="190" as="geometry"/>
                </mxCell>
                <mxCell id="2" value="&lt;u&gt;クラス図&lt;/u&gt;" style="text;html=1;strokeColor=none;fillColor=none;align=left;verticalAlign=middle;whiteSpace=wrap;rounded=0;fontStyle=1" parent="1" vertex="1">
                    <mxGeometry x="40" y="40" width="190" height="20" as="geometry"/>
                </mxCell>
                <mxCell id="10" value="プレゼンテーション層" style="text;html=1;strokeColor=none;fillColor=#FFFFFF;align=center;verticalAlign=middle;whiteSpace=wrap;rounded=0;fontStyle=1" parent="1" vertex="1">
                    <mxGeometry x="150" y="736" width="140" height="30" as="geometry"/>
                </mxCell>
                <mxCell id="12" value="アプリケーション層" style="text;html=1;strokeColor=none;fillColor=#FFFFFF;align=center;verticalAlign=middle;whiteSpace=wrap;rounded=0;fontStyle=1" parent="1" vertex="1">
                    <mxGeometry x="150" y="1009" width="120" height="30" as="geometry"/>
                </mxCell>
                <mxCell id="13" value="インフラ層" style="text;html=1;strokeColor=none;fillColor=#FFFFFF;align=center;verticalAlign=middle;whiteSpace=wrap;rounded=0;fontStyle=1" parent="1" vertex="1">
                    <mxGeometry x="560" y="734" width="80" height="30" as="geometry"/>
                </mxCell>
                <mxCell id="15" value="ドメイン層" style="text;html=1;align=center;verticalAlign=middle;whiteSpace=wrap;rounded=0;fillColor=#FFFFFF;strokeColor=none;fontStyle=1" parent="1" vertex="1">
                    <mxGeometry x="150" y="1183" width="80" height="29" as="geometry"/>
                </mxCell>
                <mxCell id="16" value="Repository" style="rounded=0;whiteSpace=wrap;html=1;" parent="1" vertex="1">
                    <mxGeometry x="790" y="774" width="90" height="30" as="geometry"/>
                </mxCell>
                <mxCell id="17" value="IRepository" style="rounded=0;whiteSpace=wrap;html=1;" parent="1" vertex="1">
                    <mxGeometry x="790" y="1247.5" width="90" height="30" as="geometry"/>
                </mxCell>
                <mxCell id="19" value="Dto" style="rounded=0;whiteSpace=wrap;html=1;" parent="1" vertex="1">
                    <mxGeometry x="250" y="1073" width="90" height="30" as="geometry"/>
                </mxCell>
                <mxCell id="20" value="UseCase" style="rounded=0;whiteSpace=wrap;html=1;" parent="1" vertex="1">
                    <mxGeometry x="360" y="1073" width="90" height="30" as="geometry"/>
                </mxCell>
                <mxCell id="21" value="Collection" style="rounded=0;whiteSpace=wrap;html=1;" parent="1" vertex="1">
                    <mxGeometry x="190" y="1247" width="90" height="30" as="geometry"/>
                </mxCell>
                <mxCell id="22" value="Domain" style="rounded=0;whiteSpace=wrap;html=1;" parent="1" vertex="1">
                    <mxGeometry x="190" y="1317" width="90" height="30" as="geometry"/>
                </mxCell>
                <mxCell id="23" value="ValueObject" style="rounded=0;whiteSpace=wrap;html=1;" parent="1" vertex="1">
                    <mxGeometry x="190" y="1387" width="90" height="30" as="geometry"/>
                </mxCell>
                <mxCell id="24" value="Service" style="rounded=0;whiteSpace=wrap;html=1;" parent="1" vertex="1">
                    <mxGeometry x="486" y="1247" width="90" height="30" as="geometry"/>
                </mxCell>
                <mxCell id="25" value="" style="endArrow=block;dashed=1;endFill=0;endSize=6;html=1;exitX=0.5;exitY=1;exitDx=0;exitDy=0;entryX=0.5;entryY=0;entryDx=0;entryDy=0;" parent="1" source="16" target="17" edge="1">
                    <mxGeometry width="160" relative="1" as="geometry">
                        <mxPoint x="650" y="869" as="sourcePoint"/>
                        <mxPoint x="810" y="869" as="targetPoint"/>
                    </mxGeometry>
                </mxCell>
                <mxCell id="28" value="" style="endArrow=open;endSize=6;dashed=1;html=1;exitX=1;exitY=0.5;exitDx=0;exitDy=0;entryX=0;entryY=0.5;entryDx=0;entryDy=0;" parent="1" source="24" target="17" edge="1">
                    <mxGeometry width="160" relative="1" as="geometry">
                        <mxPoint x="610" y="1337" as="sourcePoint"/>
                        <mxPoint x="770" y="1337" as="targetPoint"/>
                    </mxGeometry>
                </mxCell>
                <mxCell id="41" value="DB" style="shape=cylinder3;whiteSpace=wrap;html=1;boundedLbl=1;backgroundOutline=1;size=15;" parent="1" vertex="1">
                    <mxGeometry x="1300" y="880" width="80" height="108" as="geometry"/>
                </mxCell>
                <mxCell id="42" value="" style="endArrow=classic;startArrow=classic;html=1;exitX=1;exitY=0.5;exitDx=0;exitDy=0;entryX=0;entryY=0.5;entryDx=0;entryDy=0;entryPerimeter=0;" parent="1" source="102" target="41" edge="1">
                    <mxGeometry width="50" height="50" relative="1" as="geometry">
                        <mxPoint x="1150" y="1174" as="sourcePoint"/>
                        <mxPoint x="1350" y="1174" as="targetPoint"/>
                    </mxGeometry>
                </mxCell>
                <mxCell id="44" value="" style="endArrow=open;endSize=6;dashed=1;html=1;exitX=1;exitY=0.5;exitDx=0;exitDy=0;entryX=0;entryY=0.5;entryDx=0;entryDy=0;" parent="1" source="20" target="88" edge="1">
                    <mxGeometry width="160" relative="1" as="geometry">
                        <mxPoint x="660" y="1228" as="sourcePoint"/>
                        <mxPoint x="560" y="1094" as="targetPoint"/>
                    </mxGeometry>
                </mxCell>
                <mxCell id="45" value="" style="endArrow=open;endSize=6;dashed=1;html=1;exitX=0.75;exitY=1;exitDx=0;exitDy=0;entryX=0.25;entryY=0;entryDx=0;entryDy=0;edgeStyle=orthogonalEdgeStyle;" parent="1" source="20" target="24" edge="1">
                    <mxGeometry width="160" relative="1" as="geometry">
                        <mxPoint x="460.0000000000002" y="1098" as="sourcePoint"/>
                        <mxPoint x="570" y="1098" as="targetPoint"/>
                    </mxGeometry>
                </mxCell>
                <mxCell id="47" value="" style="endArrow=open;endSize=6;dashed=1;html=1;entryX=0.5;entryY=0;entryDx=0;entryDy=0;edgeStyle=orthogonalEdgeStyle;exitX=0.25;exitY=1;exitDx=0;exitDy=0;" parent="1" source="20" target="46" edge="1">
                    <mxGeometry width="160" relative="1" as="geometry">
                        <mxPoint x="410" y="1163" as="sourcePoint"/>
                        <mxPoint x="592.5" y="1213" as="targetPoint"/>
                    </mxGeometry>
                </mxCell>
                <mxCell id="50" value="Exception" style="rounded=0;whiteSpace=wrap;html=1;" parent="1" vertex="1">
                    <mxGeometry x="505" y="1379" width="90" height="30" as="geometry"/>
                </mxCell>
                <mxCell id="51" value="Utils" style="rounded=0;whiteSpace=wrap;html=1;" parent="1" vertex="1">
                    <mxGeometry x="615" y="1379" width="90" height="30" as="geometry"/>
                </mxCell>
                <mxCell id="62" value="Mapping" style="rounded=0;whiteSpace=wrap;html=1;" parent="1" vertex="1">
                    <mxGeometry x="1080" y="764" width="90" height="30" as="geometry"/>
                </mxCell>
                <mxCell id="63" value="Shared" style="text;html=1;align=center;verticalAlign=middle;whiteSpace=wrap;rounded=0;fillColor=#FFFFFF;strokeColor=none;" parent="1" vertex="1">
                    <mxGeometry x="486" y="1351" width="56" height="17" as="geometry"/>
                </mxCell>
                <mxCell id="64" value="ドメインサービス" style="text;html=1;strokeColor=none;fillColor=none;align=center;verticalAlign=middle;whiteSpace=wrap;rounded=0;fontColor=#0000FF;fontSize=10;" parent="1" vertex="1">
                    <mxGeometry x="480" y="1274" width="90" height="23" as="geometry"/>
                </mxCell>
                <mxCell id="65" value="ファーストクラス&lt;br&gt;コレクション" style="text;html=1;strokeColor=none;fillColor=none;align=center;verticalAlign=middle;whiteSpace=wrap;rounded=0;fontColor=#0000FF;fontSize=10;" parent="1" vertex="1">
                    <mxGeometry x="295" y="1251" width="90" height="23" as="geometry"/>
                </mxCell>
                <mxCell id="66" value="Domain" style="rounded=0;whiteSpace=wrap;html=1;" parent="1" vertex="1">
                    <mxGeometry x="310" y="1387" width="90" height="30" as="geometry"/>
                </mxCell>
                <mxCell id="68" value="" style="endArrow=none;startArrow=diamondThin;endFill=0;startFill=0;html=1;verticalAlign=bottom;labelBackgroundColor=none;strokeWidth=1;startSize=8;endSize=8;fontSize=10;fontColor=#000000;exitX=0.75;exitY=1;exitDx=0;exitDy=0;entryX=0.5;entryY=0;entryDx=0;entryDy=0;edgeStyle=orthogonalEdgeStyle;" parent="1" source="22" target="66" edge="1">
                    <mxGeometry width="160" relative="1" as="geometry">
                        <mxPoint x="190" y="1479" as="sourcePoint"/>
                        <mxPoint x="350" y="1479" as="targetPoint"/>
                    </mxGeometry>
                </mxCell>
                <mxCell id="70" value="" style="endArrow=none;startArrow=diamondThin;endFill=0;startFill=1;html=1;verticalAlign=bottom;labelBackgroundColor=none;strokeWidth=1;startSize=8;endSize=8;fontSize=10;fontColor=#000000;exitX=0.5;exitY=1;exitDx=0;exitDy=0;entryX=0.5;entryY=0;entryDx=0;entryDy=0;" parent="1" source="21" target="22" edge="1">
                    <mxGeometry width="160" relative="1" as="geometry">
                        <mxPoint x="260" y="1299" as="sourcePoint"/>
                        <mxPoint x="420" y="1299" as="targetPoint"/>
                    </mxGeometry>
                </mxCell>
                <mxCell id="71" value="" style="endArrow=none;startArrow=diamondThin;endFill=0;startFill=1;html=1;verticalAlign=bottom;labelBackgroundColor=none;strokeWidth=1;startSize=8;endSize=8;fontSize=10;fontColor=#000000;exitX=0.5;exitY=1;exitDx=0;exitDy=0;entryX=0.5;entryY=0;entryDx=0;entryDy=0;" parent="1" source="22" target="23" edge="1">
                    <mxGeometry width="160" relative="1" as="geometry">
                        <mxPoint x="310" y="1459" as="sourcePoint"/>
                        <mxPoint x="470" y="1459" as="targetPoint"/>
                    </mxGeometry>
                </mxCell>
                <mxCell id="72" value="集約ルート&lt;br&gt;（ルートエンティティ）" style="text;html=1;strokeColor=none;fillColor=none;align=center;verticalAlign=middle;whiteSpace=wrap;rounded=0;fontColor=#0000FF;fontSize=10;" parent="1" vertex="1">
                    <mxGeometry x="280" y="1319" width="120" height="23" as="geometry"/>
                </mxCell>
                <mxCell id="78" value="主要なオブジェクトと関係性のみ記載" style="text;html=1;strokeColor=none;fillColor=none;align=left;verticalAlign=middle;whiteSpace=wrap;rounded=0;fontSize=10;fontColor=#000000;" parent="1" vertex="1">
                    <mxGeometry x="160" y="40" width="195" height="20" as="geometry"/>
                </mxCell>
                <mxCell id="80" value="Controller" style="rounded=0;whiteSpace=wrap;html=1;" vertex="1" parent="1">
                    <mxGeometry x="250" y="844" width="90" height="30" as="geometry"/>
                </mxCell>
                <mxCell id="81" value="" style="html=1;verticalAlign=bottom;labelBackgroundColor=none;endArrow=open;endFill=0;dashed=1;exitX=0.5;exitY=1;exitDx=0;exitDy=0;entryX=0.5;entryY=0;entryDx=0;entryDy=0;edgeStyle=orthogonalEdgeStyle;" edge="1" parent="1" source="79" target="80">
                    <mxGeometry width="160" relative="1" as="geometry">
                        <mxPoint x="200" y="644" as="sourcePoint"/>
                        <mxPoint x="360" y="644" as="targetPoint"/>
                    </mxGeometry>
                </mxCell>
                <mxCell id="82" value="appContainer&lt;br&gt;(DI Container)" style="rounded=0;whiteSpace=wrap;html=1;" vertex="1" parent="1">
                    <mxGeometry x="360" y="919" width="90" height="30" as="geometry"/>
                </mxCell>
                <mxCell id="83" value="" style="html=1;verticalAlign=bottom;labelBackgroundColor=none;endArrow=open;endFill=0;dashed=1;exitX=0.5;exitY=1;exitDx=0;exitDy=0;edgeStyle=orthogonalEdgeStyle;" edge="1" parent="1" source="80" target="82">
                    <mxGeometry width="160" relative="1" as="geometry">
                        <mxPoint x="295" y="834" as="sourcePoint"/>
                        <mxPoint x="295" y="869" as="targetPoint"/>
                    </mxGeometry>
                </mxCell>
                <mxCell id="84" value="" style="html=1;verticalAlign=bottom;labelBackgroundColor=none;endArrow=open;endFill=0;dashed=1;exitX=0.5;exitY=1;exitDx=0;exitDy=0;edgeStyle=orthogonalEdgeStyle;entryX=0.5;entryY=0;entryDx=0;entryDy=0;" edge="1" parent="1" source="82" target="20">
                    <mxGeometry width="160" relative="1" as="geometry">
                        <mxPoint x="325" y="884" as="sourcePoint"/>
                        <mxPoint x="325" y="914" as="targetPoint"/>
                    </mxGeometry>
                </mxCell>
                <mxCell id="85" value="" style="html=1;verticalAlign=bottom;labelBackgroundColor=none;endArrow=open;endFill=0;dashed=1;edgeStyle=orthogonalEdgeStyle;exitX=0.5;exitY=1;exitDx=0;exitDy=0;" edge="1" parent="1" source="80" target="19">
                    <mxGeometry width="160" relative="1" as="geometry">
                        <mxPoint x="320" y="874" as="sourcePoint"/>
                        <mxPoint x="415" y="914" as="targetPoint"/>
                    </mxGeometry>
                </mxCell>
                <mxCell id="86" value="アプリケーションサービス" style="text;html=1;strokeColor=none;fillColor=none;align=center;verticalAlign=middle;whiteSpace=wrap;rounded=0;fontColor=#0000FF;fontSize=10;" vertex="1" parent="1">
                    <mxGeometry x="405" y="1050" width="135" height="23" as="geometry"/>
                </mxCell>
                <mxCell id="87" value="" style="endArrow=open;endSize=6;dashed=1;html=1;edgeStyle=orthogonalEdgeStyle;exitX=0.75;exitY=1;exitDx=0;exitDy=0;entryX=0.25;entryY=0;entryDx=0;entryDy=0;" edge="1" parent="1" source="20" target="17">
                    <mxGeometry width="160" relative="1" as="geometry">
                        <mxPoint x="437.5" y="1113" as="sourcePoint"/>
                        <mxPoint x="512.5" y="1257" as="targetPoint"/>
                    </mxGeometry>
                </mxCell>
                <mxCell id="88" value="ITransaction&lt;br&gt;Manager" style="rounded=0;whiteSpace=wrap;html=1;" vertex="1" parent="1">
                    <mxGeometry x="550" y="1073" width="120" height="30" as="geometry"/>
                </mxCell>
                <mxCell id="92" value="IQueryService" style="rounded=0;whiteSpace=wrap;html=1;" vertex="1" parent="1">
                    <mxGeometry x="690" y="1111" width="90" height="30" as="geometry"/>
                </mxCell>
                <mxCell id="93" value="QueryService" style="rounded=0;whiteSpace=wrap;html=1;" vertex="1" parent="1">
                    <mxGeometry x="690" y="774" width="90" height="30" as="geometry"/>
                </mxCell>
                <mxCell id="95" value="etc." style="text;html=1;strokeColor=none;fillColor=none;align=center;verticalAlign=middle;whiteSpace=wrap;rounded=0;" vertex="1" parent="1">
                    <mxGeometry x="710" y="1378" width="50" height="30" as="geometry"/>
                </mxCell>
                <mxCell id="97" value="PrismaTransaction&lt;br&gt;Manager" style="rounded=0;whiteSpace=wrap;html=1;" vertex="1" parent="1">
                    <mxGeometry x="550" y="919" width="120" height="30" as="geometry"/>
                </mxCell>
                <mxCell id="98" value="" style="endArrow=block;dashed=1;endFill=0;endSize=6;html=1;exitX=0.5;exitY=1;exitDx=0;exitDy=0;entryX=0.5;entryY=0;entryDx=0;entryDy=0;" edge="1" parent="1" source="97" target="88">
                    <mxGeometry width="160" relative="1" as="geometry">
                        <mxPoint x="785" y="819" as="sourcePoint"/>
                        <mxPoint x="785" y="1257" as="targetPoint"/>
                    </mxGeometry>
                </mxCell>
                <mxCell id="99" value="IDataAccessClient&lt;br&gt;Manager" style="rounded=0;whiteSpace=wrap;html=1;" vertex="1" parent="1">
                    <mxGeometry x="900" y="919" width="120" height="30" as="geometry"/>
                </mxCell>
                <mxCell id="100" value="PrismaClient&lt;br&gt;Manager" style="rounded=0;whiteSpace=wrap;html=1;" vertex="1" parent="1">
                    <mxGeometry x="900" y="845" width="120" height="30" as="geometry"/>
                </mxCell>
                <mxCell id="101" value="" style="endArrow=block;dashed=1;endFill=0;endSize=6;html=1;exitX=0.5;exitY=1;exitDx=0;exitDy=0;entryX=0.5;entryY=0;entryDx=0;entryDy=0;" edge="1" parent="1" source="100" target="99">
                    <mxGeometry width="160" relative="1" as="geometry">
                        <mxPoint x="742.5" y="1144" as="sourcePoint"/>
                        <mxPoint x="742.5" y="1303" as="targetPoint"/>
                    </mxGeometry>
                </mxCell>
                <mxCell id="102" value="PrismaClient" style="rounded=0;whiteSpace=wrap;html=1;" vertex="1" parent="1">
                    <mxGeometry x="1050" y="919" width="120" height="30" as="geometry"/>
                </mxCell>
                <mxCell id="103" value="" style="html=1;verticalAlign=bottom;labelBackgroundColor=none;endArrow=open;endFill=0;dashed=1;exitX=0.75;exitY=1;exitDx=0;exitDy=0;edgeStyle=orthogonalEdgeStyle;entryX=0.5;entryY=0;entryDx=0;entryDy=0;" edge="1" parent="1" source="100" target="102">
                    <mxGeometry width="160" relative="1" as="geometry">
                        <mxPoint x="750" y="902.5" as="sourcePoint"/>
                        <mxPoint x="860" y="947.5" as="targetPoint"/>
                    </mxGeometry>
                </mxCell>
                <mxCell id="105" value="" style="endArrow=open;endSize=6;dashed=1;html=1;edgeStyle=orthogonalEdgeStyle;exitX=0.75;exitY=1;exitDx=0;exitDy=0;entryX=0;entryY=0.5;entryDx=0;entryDy=0;" edge="1" parent="1" source="20" target="92">
                    <mxGeometry width="160" relative="1" as="geometry">
                        <mxPoint x="437.5" y="1113" as="sourcePoint"/>
                        <mxPoint x="670" y="1124" as="targetPoint"/>
                    </mxGeometry>
                </mxCell>
                <mxCell id="106" value="" style="endArrow=block;dashed=1;endFill=0;endSize=6;html=1;entryX=0.5;entryY=0;entryDx=0;entryDy=0;exitX=0.5;exitY=1;exitDx=0;exitDy=0;" edge="1" parent="1" source="93" target="92">
                    <mxGeometry width="160" relative="1" as="geometry">
                        <mxPoint x="632.5" y="959" as="sourcePoint"/>
                        <mxPoint x="632.5" y="1083" as="targetPoint"/>
                    </mxGeometry>
                </mxCell>
                <mxCell id="108" value="" style="html=1;verticalAlign=bottom;labelBackgroundColor=none;endArrow=open;endFill=0;dashed=1;exitX=1;exitY=0.5;exitDx=0;exitDy=0;edgeStyle=orthogonalEdgeStyle;" edge="1" parent="1" source="107" target="100">
                    <mxGeometry width="160" relative="1" as="geometry">
                        <mxPoint x="1000" y="885" as="sourcePoint"/>
                        <mxPoint x="1120" y="929" as="targetPoint"/>
                    </mxGeometry>
                </mxCell>
                <mxCell id="111" value="main" style="text;html=1;strokeColor=none;fillColor=#FFFFFF;align=center;verticalAlign=middle;whiteSpace=wrap;rounded=0;fontStyle=1;fontSize=16;" vertex="1" parent="1">
                    <mxGeometry x="100" y="670" width="100" height="30" as="geometry"/>
                </mxCell>
                <mxCell id="112" value="index.ts&lt;br&gt;contextBridge.exposeInMainWorld" style="rounded=0;whiteSpace=wrap;html=1;" vertex="1" parent="1">
                    <mxGeometry x="245" y="550" width="230" height="50" as="geometry"/>
                </mxCell>
                <mxCell id="115" value="preload" style="text;html=1;strokeColor=none;fillColor=#FFFFFF;align=center;verticalAlign=middle;whiteSpace=wrap;rounded=0;fontStyle=1;fontSize=16;" vertex="1" parent="1">
                    <mxGeometry x="100" y="390" width="100" height="30" as="geometry"/>
                </mxCell>
                <mxCell id="116" value="" style="html=1;verticalAlign=bottom;labelBackgroundColor=none;endArrow=open;endFill=0;dashed=1;entryX=0.5;entryY=0;entryDx=0;entryDy=0;edgeStyle=orthogonalEdgeStyle;" edge="1" parent="1" source="112" target="79">
                    <mxGeometry width="160" relative="1" as="geometry">
                        <mxPoint x="530" y="652" as="sourcePoint"/>
                        <mxPoint x="465" y="700" as="targetPoint"/>
                    </mxGeometry>
                </mxCell>
                <mxCell id="117" value="index.d.ts" style="rounded=0;whiteSpace=wrap;html=1;" vertex="1" parent="1">
                    <mxGeometry x="245" y="460" width="230" height="50" as="geometry"/>
                </mxCell>
                <mxCell id="118" value="" style="rounded=0;whiteSpace=wrap;html=1;" vertex="1" parent="1">
                    <mxGeometry x="67.5" y="130" width="582.5" height="220" as="geometry"/>
                </mxCell>
                <mxCell id="119" value="renderer" style="text;html=1;strokeColor=none;fillColor=#FFFFFF;align=center;verticalAlign=middle;whiteSpace=wrap;rounded=0;fontStyle=1;fontSize=16;" vertex="1" parent="1">
                    <mxGeometry x="100" y="110" width="100" height="30" as="geometry"/>
                </mxCell>
                <mxCell id="120" value="custom hook etc." style="rounded=0;whiteSpace=wrap;html=1;" vertex="1" parent="1">
                    <mxGeometry x="286.88" y="260" width="146.25" height="50" as="geometry"/>
                </mxCell>
                <mxCell id="121" value="page" style="rounded=0;whiteSpace=wrap;html=1;" vertex="1" parent="1">
                    <mxGeometry x="210" y="160" width="115" height="50" as="geometry"/>
                </mxCell>
                <mxCell id="122" value="component" style="rounded=0;whiteSpace=wrap;html=1;" vertex="1" parent="1">
                    <mxGeometry x="390" y="160" width="115" height="50" as="geometry"/>
                </mxCell>
                <mxCell id="123" value="" style="html=1;verticalAlign=bottom;labelBackgroundColor=none;endArrow=open;endFill=0;dashed=1;entryX=0.5;entryY=0;entryDx=0;entryDy=0;edgeStyle=orthogonalEdgeStyle;exitX=0.5;exitY=1;exitDx=0;exitDy=0;" edge="1" parent="1" source="121" target="120">
                    <mxGeometry width="160" relative="1" as="geometry">
                        <mxPoint x="370" y="640" as="sourcePoint"/>
                        <mxPoint x="370" y="776" as="targetPoint"/>
                    </mxGeometry>
                </mxCell>
                <mxCell id="124" value="" style="html=1;verticalAlign=bottom;labelBackgroundColor=none;endArrow=open;endFill=0;dashed=1;entryX=0.5;entryY=0;entryDx=0;entryDy=0;edgeStyle=orthogonalEdgeStyle;exitX=0.5;exitY=1;exitDx=0;exitDy=0;" edge="1" parent="1" source="122" target="120">
                    <mxGeometry width="160" relative="1" as="geometry">
                        <mxPoint x="312.5" y="220" as="sourcePoint"/>
                        <mxPoint x="365.0050000000001" y="270" as="targetPoint"/>
                    </mxGeometry>
                </mxCell>
                <mxCell id="125" value="" style="html=1;verticalAlign=bottom;labelBackgroundColor=none;endArrow=open;endFill=0;dashed=1;edgeStyle=orthogonalEdgeStyle;exitX=0.5;exitY=1;exitDx=0;exitDy=0;" edge="1" parent="1" source="120" target="117">
                    <mxGeometry width="160" relative="1" as="geometry">
                        <mxPoint x="457.5" y="220" as="sourcePoint"/>
                        <mxPoint x="365.0050000000001" y="270" as="targetPoint"/>
                    </mxGeometry>
                </mxCell>
                <mxCell id="126" value="" style="endArrow=none;html=1;fontSize=16;entryX=0.5;entryY=1;entryDx=0;entryDy=0;exitX=0.5;exitY=0;exitDx=0;exitDy=0;" edge="1" parent="1" source="112" target="117">
                    <mxGeometry width="50" height="50" relative="1" as="geometry">
                        <mxPoint x="-20" y="630" as="sourcePoint"/>
                        <mxPoint x="30" y="580" as="targetPoint"/>
                    </mxGeometry>
                </mxCell>
            </root>
        </mxGraphModel>
    </diagram>
</mxfile>